<svg xmlns="http://www.w3.org/2000/svg" version="1.1" xmlns:xlink="http://www.w3.org/1999/xlink" xmlns:svgjs="http://svgjs.dev/svgjs" width="1000" height="300" viewBox="0 0 1000 300"><g transform="matrix(1,0,0,1,26.64278922575886,-0.014069766443469689)"><svg viewBox="0 0 396 119" data-background-color="#ffffff" preserveAspectRatio="xMidYMid meet" height="300" width="1000" xmlns="http://www.w3.org/2000/svg" xmlns:xlink="http://www.w3.org/1999/xlink"><g id="tight-bounds" transform="matrix(1,0,0,1,0.5490589542959015,0.01994308140839962)"><svg viewBox="0 0 395.52 118.96011383718319" height="118.96011383718319" width="395.52"><g><svg viewBox="0 0 508.7946776630299 153.02961360878584" height="118.96011383718319" width="395.52"><g><rect width="6.27533054513181" height="111.28419802954396" x="90.5717802458253" y="20.87270778962094" fill="#000000" opacity="1" stroke-width="0" stroke="transparent" fill-opacity="1" class="rect-o-0" data-fill-palette-color="primary" rx="1%" id="o-0" data-palette-color="#233565"></rect></g><g transform="matrix(1,0,0,1,113.2746776630299,21.14953415287851)"><svg viewBox="0 0 395.52 110.73054530302882" height="110.73054530302882" width="395.52"><g id="textblocktransform"><svg viewBox="0 0 395.52 110.73054530302882" height="110.73054530302882" width="395.52" id="textblock"><g><svg viewBox="0 0 395.52 69.58592517694642" height="69.58592517694642" width="395.52"><g transform="matrix(1,0,0,1,0,0)"><svg width="395.52" viewBox="1.149999976158142 -33.95000076293945 197.79000854492188 34.79999923706055" height="69.58592517694642" data-palette-color="#233565"><g class="wordmark-text-0" data-fill-palette-color="primary" id="text-0"><path d="M14.35 0L1.15 0 1.15-1.05 2.1-1.3Q3.1-1.6 3.4-2.2 3.7-2.8 3.75-3.85L3.75-3.85Q3.8-6.7 3.8-9.63 3.8-12.55 3.8-15.5L3.8-15.5 3.8-17.55Q3.8-20.45 3.8-23.35 3.8-26.25 3.75-29.15L3.75-29.15Q3.7-30.2 3.45-30.78 3.2-31.35 2.25-31.65L2.25-31.65 1.15-32 1.15-33.05 25.2-33.05 25.55-24.6 24.2-24.6 21.6-29.55Q21.1-30.5 20.5-31.03 19.9-31.55 18.75-31.55L18.75-31.55 11.05-31.55Q11-28.2 10.98-24.68 10.95-21.15 10.95-17.65L10.95-17.65 15.75-17.65Q16.9-17.65 17.45-18.18 18-18.7 18.5-19.65L18.5-19.65 19.5-21.5 20.6-21.5 20.6-12.35 19.5-12.35 18.5-14.15Q17.95-15.15 17.43-15.68 16.9-16.2 15.75-16.2L15.75-16.2 10.95-16.2Q10.95-12.9 10.95-9.88 10.95-6.85 11-3.95L11-3.95Q11-1.9 12.85-1.4L12.85-1.4 14.35-1.05 14.35 0ZM34.8 0L27.15 0 27.15-1.05 28.5-1.45Q29.55-1.75 30.12-2.35 30.7-2.95 31.05-4L31.05-4 41.15-33.2 45.3-33.2 55.35-3.8Q55.75-2.7 56.25-2.13 56.75-1.55 57.85-1.2L57.85-1.2 58.6-1 58.6 0 45.9 0 45.9-1 46.75-1.25Q47.85-1.6 48.07-2.35 48.3-3.1 47.95-4.2L47.95-4.2 45.85-10.65 34.8-10.65 32.65-4.3Q32.3-3.2 32.45-2.5 32.6-1.8 33.7-1.4L33.7-1.4 34.8-1.05 34.8 0ZM40.5-27.15L35.3-12.1 45.4-12.1 40.5-27.15ZM71.05 0.85L71.05 0.85Q68.3 0.85 65.47 0.18 62.65-0.5 60.75-1.6L60.75-1.6 61.05-8.55 62.5-8.55 64.05-5.1Q64.75-3.65 65.5-2.7 66.25-1.75 67.5-1.25L67.5-1.25Q68.34-0.9 69.12-0.78 69.9-0.65 70.84-0.65L70.84-0.65Q73.9-0.65 75.67-2.23 77.45-3.8 77.45-6.4L77.45-6.4Q77.45-8.75 76.22-10.1 75-11.45 72.3-12.7L72.3-12.7 70.25-13.6Q66.05-15.45 63.62-17.9 61.2-20.35 61.2-24.4L61.2-24.4Q61.2-27.4 62.72-29.53 64.25-31.65 66.95-32.8 69.65-33.95 73.25-33.95L73.25-33.95Q75.9-33.95 78.22-33.25 80.55-32.55 82.3-31.35L82.3-31.35 81.95-25.15 80.5-25.15 78.65-28.9Q77.84-30.55 77.12-31.28 76.4-32 75.34-32.2L75.34-32.2Q74.75-32.3 74.32-32.35 73.9-32.4 73.2-32.4L73.2-32.4Q70.75-32.4 68.97-30.98 67.2-29.55 67.2-27.05L67.2-27.05Q67.2-24.65 68.55-23.15 69.9-21.65 72.45-20.5L72.45-20.5 74.7-19.55Q79.55-17.45 81.65-15.08 83.75-12.7 83.75-9L83.75-9Q83.75-4.6 80.42-1.88 77.09 0.85 71.05 0.85ZM98.69 0L86.34 0 86.34-1.05 87.29-1.35Q88.29-1.7 88.64-2.27 88.99-2.85 88.99-3.85L88.99-3.85 88.99-29.15Q88.99-30.15 88.67-30.75 88.34-31.35 87.34-31.7L87.34-31.7 86.34-32 86.34-33.05 98.69-33.05 98.69-32 97.84-31.75Q96.89-31.4 96.54-30.83 96.19-30.25 96.19-29.25L96.19-29.25 96.19-17.75 108.64-17.75 108.64-29.25Q108.64-30.25 108.29-30.83 107.94-31.4 106.94-31.75L106.94-31.75 106.14-32 106.14-33.05 118.49-33.05 118.49-32 117.54-31.7Q116.59-31.35 116.22-30.78 115.84-30.2 115.84-29.2L115.84-29.2 115.84-3.85Q115.84-2.85 116.22-2.27 116.59-1.7 117.54-1.35L117.54-1.35 118.49-1.05 118.49 0 106.14 0 106.14-1.05 106.94-1.3Q107.94-1.65 108.29-2.23 108.64-2.8 108.64-3.8L108.64-3.8 108.64-16.25 96.19-16.25 96.19-3.8Q96.19-2.8 96.57-2.23 96.94-1.65 97.89-1.3L97.89-1.3 98.69-1.05 98.69 0ZM133.29 0L120.79 0 120.79-1.05 121.79-1.35Q122.79-1.7 123.12-2.27 123.44-2.85 123.44-3.9L123.44-3.9 123.44-29.15Q123.44-30.2 123.12-30.78 122.79-31.35 121.79-31.7L121.79-31.7 120.79-32 120.79-33.05 133.29-33.05 133.29-32 132.29-31.7Q131.34-31.35 130.99-30.78 130.64-30.2 130.64-29.15L130.64-29.15 130.64-3.9Q130.64-2.85 130.99-2.27 131.34-1.7 132.29-1.35L132.29-1.35 133.29-1.05 133.29 0ZM151.19 0.85L151.19 0.85Q148.14 0.85 145.34-0.25 142.54-1.35 140.31-3.53 138.09-5.7 136.79-8.95 135.49-12.2 135.49-16.55L135.49-16.55Q135.49-20.8 136.79-24.05 138.09-27.3 140.31-29.5 142.54-31.7 145.36-32.83 148.19-33.95 151.19-33.95L151.19-33.95Q154.19-33.95 157.01-32.85 159.84-31.75 162.04-29.58 164.24-27.4 165.54-24.15 166.84-20.9 166.84-16.55L166.84-16.55Q166.84-12.3 165.54-9.05 164.24-5.8 162.04-3.6 159.84-1.4 157.04-0.28 154.24 0.85 151.19 0.85ZM151.19-0.65L151.19-0.65Q154.04-0.65 155.79-2.13 157.54-3.6 158.34-7.1 159.14-10.6 159.14-16.55L159.14-16.55Q159.14-22.5 158.34-25.98 157.54-29.45 155.79-30.93 154.04-32.4 151.19-32.4L151.19-32.4Q148.39-32.4 146.61-30.93 144.84-29.45 144.04-25.98 143.24-22.5 143.24-16.55L143.24-16.55Q143.24-10.6 144.04-7.1 144.84-3.6 146.61-2.13 148.39-0.65 151.19-0.65ZM177.34 0L169.64 0 169.64-1.05 171.09-1.45Q172.04-1.7 172.41-2.4 172.79-3.1 172.79-4.1L172.79-4.1 172.79-28.3Q172.34-29.25 172.01-29.73 171.69-30.2 171.34-30.55 170.99-30.9 170.39-31.35L170.39-31.35 169.49-32 169.49-33.05 178.04-33.05 194.64-10.35 194.64-28.9Q194.64-29.9 194.31-30.65 193.99-31.4 192.99-31.65L192.99-31.65 191.49-32 191.49-33.05 198.94-33.05 198.94-32 197.69-31.65Q196.74-31.35 196.51-30.63 196.29-29.9 196.29-28.9L196.29-28.9 196.29 0.2 193.49 0.2 174.44-26 174.44-4.15Q174.44-3.1 174.74-2.4 175.04-1.7 175.99-1.45L175.99-1.45 177.34-1.05 177.34 0Z" fill="#000000" data-fill-palette-color="primary"></path></g></svg></g></svg></g><g transform="matrix(1,0,0,1,0,86.01349204901922)"><svg viewBox="0 0 232.209792 24.717053254009596" height="24.717053254009596" width="232.209792"><g transform="matrix(1,0,0,1,0,0)"><svg width="232.209792" viewBox="3.8600001335144043 -34.52000045776367 356.1800231933594 37.90999984741211" height="24.717053254009596" data-palette-color="#233565"><path d="M3.86 0L3.86-6.71 8.89-6.71Q9.55-5.71 10.77-4.96 11.99-4.2 13.56-3.71 15.14-3.22 17.02-2.98 18.9-2.73 20.87-2.73L20.87-2.73Q22.51-2.73 23.66-2.98 24.8-3.22 25.51-3.66 26.22-4.1 26.54-4.69 26.86-5.27 26.86-5.98L26.86-5.98Q26.86-7.47 24.48-8.53 22.09-9.59 16.94-10.16L16.94-10.16Q13.53-10.52 11.23-11.17 8.94-11.82 7.53-12.74 6.13-13.67 5.53-14.87 4.93-16.06 4.93-17.5L4.93-17.5Q4.93-18.75 5.71-19.97 6.49-21.19 8.09-22.16 9.69-23.12 12.1-23.71 14.5-24.29 17.75-24.29L17.75-24.29Q18.8-24.29 19.9-24.15 21-24 22.05-23.72 23.1-23.44 24.05-23.05 25-22.66 25.76-22.17L25.76-22.17 25.76-23.54 31.01-23.54 31.01-16.94 25.76-16.94Q25.49-17.7 24.63-18.38 23.78-19.07 22.61-19.58 21.44-20.09 20.12-20.4 18.8-20.7 17.63-20.7L17.63-20.7Q16.09-20.7 14.72-20.48 13.35-20.26 12.35-19.86 11.35-19.46 10.77-18.9 10.18-18.33 10.18-17.65L10.18-17.65Q10.18-17.02 10.63-16.5 11.08-15.99 12.15-15.55 13.21-15.11 14.98-14.73 16.75-14.36 19.38-14.04L19.38-14.04Q22.9-13.6 25.32-12.92 27.73-12.23 29.25-11.24 30.76-10.25 31.43-8.94 32.1-7.62 32.1-5.91L32.1-5.91Q32.1-4.66 31.35-3.48 30.59-2.29 29.14-1.35 27.69-0.42 25.57 0.16 23.46 0.73 20.73 0.73L20.73 0.73Q18.97 0.73 17.43 0.6 15.89 0.46 14.48 0.15 13.06-0.17 11.74-0.66 10.42-1.15 9.11-1.86L9.11-1.86 9.11 0 3.86 0ZM26.95-14.31L26.95-15.23 32.76-15.23 32.76-22.51 33.74-22.51 33.74-14.31 26.95-14.31ZM11.96-17.65L11.96-17.65Q12.04-17.97 12.55-18.24 13.06-18.51 13.85-18.71 14.65-18.92 15.61-19.04 16.58-19.17 17.55-19.17L17.55-19.17Q18.38-19.17 19.27-19.04 20.17-18.92 20.96-18.7 21.75-18.48 22.4-18.15 23.05-17.82 23.41-17.41L23.41-17.41Q22.85-17.65 22.07-17.81 21.29-17.97 20.47-18.07 19.65-18.16 18.87-18.21 18.09-18.26 17.55-18.26L17.55-18.26Q15.58-18.26 14.12-18.07 12.67-17.87 11.96-17.65ZM5.27-12.82L5.27-12.82Q5.96-11.94 6.91-11.25 7.86-10.57 9.2-10.03 10.55-9.5 12.33-9.12 14.11-8.74 16.43-8.47L16.43-8.47Q18.55-8.23 20.12-7.95 21.68-7.67 22.73-7.32 23.78-6.98 24.37-6.56 24.95-6.13 25.12-5.59L25.12-5.59Q24.61-5.93 23.95-6.19 23.29-6.45 22.27-6.67 21.24-6.88 19.74-7.1 18.24-7.32 16.02-7.59L16.02-7.59Q11.43-8.13 8.76-9.34 6.1-10.55 5.27-12.82ZM5.05 1.71L10.86 1.71 10.86 0.68Q11.55 1 12.6 1.31 13.65 1.61 14.95 1.87 16.26 2.12 17.72 2.28 19.19 2.44 20.7 2.44L20.7 2.44Q23.73 2.44 26.17 1.77 28.61 1.1 30.32-0.04 32.03-1.17 32.95-2.67 33.86-4.17 33.86-5.83L33.86-5.83Q33.86-6.49 33.79-7.06 33.72-7.62 33.53-8.13 33.35-8.64 33.04-9.16 32.74-9.67 32.28-10.23L32.28-10.23Q34.84-8.72 34.84-5.83L34.84-5.83Q34.84-3.88 33.84-2.2 32.84-0.51 30.99 0.72 29.15 1.95 26.54 2.66 23.93 3.37 20.68 3.37L20.68 3.37Q19.48 3.37 18.26 3.26 17.04 3.15 15.89 2.95 14.75 2.76 13.72 2.49 12.7 2.22 11.89 1.88L11.89 1.88 11.89 2.69 5.05 2.69 5.05 1.71ZM46.02-29.64L46.02-34.52 52-34.52 52-29.64 46.02-29.64ZM47.48-27L47.48-27.93 53.76-27.93 53.76-33.15 54.73-33.15 54.73-27 47.48-27ZM40.89 0L40.89-3.66 47.48-3.66 46.75-19.41 40.89-19.41 40.89-23.56 52-23.56 52-3.66 57.61-3.66 57.61 0 40.89 0ZM53.71-5.13L53.71-22.31 54.69-22.31 54.69-5.13 53.71-5.13ZM42.36-16.77L42.36-17.7 45.73-17.7 45.73-16.77 42.36-16.77ZM42.36 1.71L59.37 1.71 59.37-2.29 60.35-2.29 60.35 2.64 42.36 2.64 42.36 1.71ZM64.79 0L64.79-3.66 70.16-3.66 70.16-19.41 64.79-19.41 64.79-23.56 75.41-23.56 75.41-19.87Q76.17-20.8 77.23-21.61 78.29-22.41 79.61-23.01 80.93-23.61 82.47-23.95 84-24.29 85.69-24.29L85.69-24.29Q88.23-24.29 90.3-23.57 92.38-22.85 93.84-21.35 95.31-19.85 96.1-17.57 96.89-15.28 96.89-12.16L96.89-12.16 96.89-3.66 102.27-3.66 102.27 0 87.5 0 87.5-3.66 91.65-3.66 91.65-10.08Q91.65-12.06 91.46-13.61 91.28-15.16 90.94-16.04L90.94-16.04Q90.5-17.16 89.83-17.94 89.16-18.73 88.31-19.21 87.47-19.7 86.47-19.92 85.47-20.14 84.35-20.14L84.35-20.14Q83.15-20.14 81.87-19.7 80.59-19.26 79.38-18.47 78.17-17.68 77.13-16.6 76.09-15.53 75.41-14.28L75.41-14.28 75.41-3.66 79.56-3.66 79.56 0 64.79 0ZM98.65-5.13L98.65-11.99Q98.65-14.14 98.32-15.98 97.99-17.82 97.33-19.3 96.67-20.78 95.71-21.85 94.75-22.92 93.48-23.56L93.48-23.56Q95.14-23.14 96.31-22.16 97.48-21.17 98.21-19.65 98.95-18.14 99.29-16.16 99.63-14.18 99.63-11.82L99.63-11.82 99.63-5.13 98.65-5.13ZM77.17-5.13L77.17-13.67Q77.78-14.75 78.62-15.63 79.46-16.5 80.45-17.13 81.44-17.75 82.53-18.09 83.61-18.43 84.69-18.43L84.69-18.43Q86.37-18.43 87.42-17.8 88.47-17.16 88.96-16.19L88.96-16.19Q88.2-16.75 87.19-17.14 86.18-17.53 84.64-17.53L84.64-17.53Q83.69-17.53 82.71-17.18 81.73-16.82 80.85-16.24 79.98-15.65 79.27-14.89 78.56-14.14 78.14-13.35L78.14-13.35 78.14-5.13 77.17-5.13ZM66.25-16.77L66.25-17.7 69.14-17.7 69.14-16.77 66.25-16.77ZM88.96 1.71L104.02 1.71 104.02-2.29 105-2.29 105 2.64 88.96 2.64 88.96 1.71ZM66.25 1.71L81.32 1.71 81.32-2.29 82.29-2.29 82.29 2.64 66.25 2.64 66.25 1.71ZM108.73-11.33L108.73-11.33Q108.73-13.92 109.84-16.26 110.95-18.6 112.97-20.39 114.98-22.17 117.83-23.23 120.67-24.29 124.11-24.29L124.11-24.29Q126.99-24.29 129.33-23.52 131.66-22.75 133.64-21.36L133.64-21.36 133.64-23.54 138.88-23.54 138.88-15.97 133.88-15.97Q133.2-16.82 132.19-17.64 131.19-18.46 129.94-19.09 128.68-19.73 127.19-20.12 125.7-20.51 124.04-20.51L124.04-20.51Q121.92-20.51 120.09-19.82 118.25-19.14 116.91-17.92 115.57-16.7 114.8-15.04 114.03-13.38 114.03-11.43L114.03-11.43Q114.03-9.4 114.85-7.84 115.67-6.27 117.11-5.21 118.55-4.15 120.52-3.6 122.5-3.05 124.82-3.05L124.82-3.05Q128.58-3.05 131.47-4.25 134.37-5.44 136.64-7.93L136.64-7.93 139.23-4.98Q136.56-2.12 133.05-0.7 129.53 0.73 124.94 0.73L124.94 0.73Q121.09 0.73 118.07-0.13 115.06-1 112.98-2.59 110.91-4.17 109.82-6.4 108.73-8.62 108.73-11.33ZM135.08-13.33L135.08-14.26 140.64-14.26 140.64-22.51 141.62-22.51 141.62-13.33 135.08-13.33ZM115.79-11.43L115.79-11.43Q115.79-13.06 116.42-14.42 117.06-15.77 118.17-16.75 119.28-17.72 120.79-18.26 122.31-18.8 124.06-18.8L124.06-18.8Q125.11-18.8 126.19-18.6 127.26-18.41 128.22-18.05 129.17-17.7 129.92-17.21 130.68-16.72 131.12-16.14L131.12-16.14Q129.66-16.92 127.98-17.4 126.31-17.87 124.16-17.87L124.16-17.87Q122.45-17.87 121.09-17.35 119.72-16.82 118.75-15.94 117.79-15.06 117.28-13.89 116.76-12.72 116.76-11.43L116.76-11.43Q116.76-10.13 117.17-9.14 117.57-8.15 118.33-7.36 119.08-6.57 120.18-5.97 121.28-5.37 122.67-4.88L122.67-4.88Q121.06-5.03 119.78-5.57 118.5-6.1 117.62-6.95 116.74-7.79 116.26-8.92 115.79-10.06 115.79-11.43ZM112.22-1.12L112.22-1.12Q113.4-0.27 114.84 0.4 116.28 1.07 117.92 1.53 119.57 1.98 121.35 2.22 123.14 2.47 124.97 2.47L124.97 2.47Q127.17 2.47 129.28 2.11 131.39 1.76 133.24 1.1 135.1 0.44 136.64-0.5 138.18-1.44 139.25-2.61L139.25-2.61 139.96-1.98Q137.3 0.73 133.5 2.06 129.7 3.39 124.92 3.39L124.92 3.39Q122.94 3.39 120.99 3.1 119.04 2.81 117.33 2.23 115.62 1.66 114.29 0.82 112.96-0.02 112.22-1.12ZM147.57-11.33L147.57-11.33Q147.57-13.92 148.53-16.26 149.48-18.6 151.38-20.39 153.29-22.17 156.12-23.23 158.95-24.29 162.69-24.29L162.69-24.29Q166.2-24.29 168.96-23.35 171.72-22.41 173.65-20.63 175.58-18.85 176.59-16.27 177.6-13.7 177.6-10.4L177.6-10.4 152.92-10.4Q153.14-8.64 154.05-7.28 154.97-5.91 156.39-4.97 157.8-4.03 159.6-3.54 161.39-3.05 163.34-3.05L163.34-3.05Q164.93-3.05 166.58-3.31 168.23-3.56 169.69-4 171.16-4.44 172.3-4.99 173.45-5.54 174.06-6.13L174.06-6.13 174.99-6.13 177.28-3.64Q174.77-1.49 171.17-0.38 167.57 0.73 163.22 0.73L163.22 0.73Q159.44 0.73 156.52-0.2 153.6-1.12 151.61-2.76 149.62-4.39 148.6-6.59 147.57-8.79 147.57-11.33ZM155.26-8.69L179.26-8.69Q179.31-9.06 179.34-9.48 179.36-9.91 179.36-10.4L179.36-10.4Q179.36-12.48 178.93-14.37 178.51-16.26 177.69-17.88 176.87-19.51 175.67-20.85 174.48-22.19 172.96-23.14L172.96-23.14Q174.57-22.51 175.93-21.4 177.28-20.29 178.26-18.7 179.24-17.11 179.79-15.04 180.34-12.96 180.34-10.4L180.34-10.4Q180.34-10.21 180.32-9.91 180.31-9.62 180.29-9.25 180.26-8.89 180.23-8.51 180.19-8.13 180.14-7.76L180.14-7.76 157.07-7.76Q157.53-6.98 158.78-6.16 160.02-5.35 162-4.79L162-4.79Q160.78-4.79 159.72-5.08 158.66-5.37 157.79-5.88 156.92-6.4 156.28-7.12 155.63-7.84 155.26-8.69L155.26-8.69ZM153.07-13.45L171.96-13.45Q171.57-15.14 170.75-16.46 169.94-17.77 168.74-18.66 167.54-19.56 166.01-20.03 164.47-20.51 162.64-20.51L162.64-20.51Q160.66-20.51 159.04-19.98 157.41-19.46 156.19-18.52 154.97-17.58 154.18-16.28 153.38-14.99 153.07-13.45L153.07-13.45ZM156.41-14.5L155.29-14.5Q156.19-16.5 158.13-17.65 160.07-18.8 162.64-18.8L162.64-18.8Q163.69-18.8 164.68-18.63 165.66-18.46 166.51-18.1 167.35-17.75 167.98-17.24 168.62-16.72 168.98-16.06L168.98-16.06Q167.59-16.99 166.01-17.43 164.42-17.87 162.59-17.87L162.59-17.87Q160.46-17.87 158.85-16.99 157.24-16.11 156.41-14.5L156.41-14.5ZM150.53-1.07L150.53-1.07Q152.9 0.61 156.03 1.54 159.17 2.47 163.22 2.47L163.22 2.47Q167.18 2.47 170.63 1.56 174.09 0.66 176.87-1.2L176.87-1.2 177.53-0.49Q174.38 1.64 170.9 2.51 167.42 3.39 163.61 3.39L163.61 3.39Q158.66 3.39 155.4 2.2 152.14 1 150.53-1.07ZM202.18 0L202.18-2.54Q202.18-4.1 202.98-5.77 203.77-7.45 205.58-9.12 207.38-10.79 210.34-12.43 213.29-14.06 217.61-15.55L217.61-15.55Q220.25-16.46 221.9-17.27 223.54-18.09 224.45-18.9 225.35-19.7 225.67-20.53 225.99-21.36 225.99-22.31L225.99-22.31Q225.99-23.39 225.44-24.3 224.89-25.22 223.83-25.9 222.76-26.59 221.24-26.97 219.71-27.34 217.78-27.34L217.78-27.34Q215.66-27.34 213.82-27 211.97-26.66 210.61-25.85 209.24-25.05 208.46-23.73 207.68-22.41 207.68-20.43L207.68-20.43 202.18-20.43Q202.18-23.17 203.28-25.21 204.38-27.25 206.43-28.59 208.48-29.93 211.39-30.59 214.29-31.25 217.93-31.25L217.93-31.25Q221.1-31.25 223.63-30.65 226.16-30.05 227.91-28.92 229.67-27.78 230.61-26.14 231.55-24.49 231.55-22.39L231.55-22.39Q231.55-20.78 231.02-19.34 230.48-17.9 229.16-16.59 227.84-15.28 225.61-14.1 223.37-12.92 220-11.82L220-11.82Q217.15-10.89 215.02-9.95 212.9-9.01 211.44-8.02 209.97-7.03 209.12-6.01 208.26-4.98 207.94-3.91L207.94-3.91 227.43-3.91 227.43-7.81 232.92-7.81 232.92 0 202.18 0ZM212.63-5.37L211.34-5.37Q211.51-5.81 212.11-6.36 212.7-6.91 213.86-7.54 215.02-8.18 216.81-8.89 218.59-9.59 221.1-10.33L221.1-10.33Q227.35-12.13 230.33-15.23 233.31-18.33 233.31-22.44L233.31-22.44Q233.31-24.27 232.36-26.07 231.41-27.88 229.5-29.42L229.5-29.42Q230.67-28.98 231.56-28.21 232.46-27.44 233.07-26.49 233.68-25.54 233.98-24.49 234.29-23.44 234.29-22.46L234.29-22.46Q234.29-20.17 233.53-18.21 232.77-16.26 231.15-14.61 229.53-12.96 226.96-11.62 224.4-10.28 220.81-9.2L220.81-9.2Q218.98-8.64 217.6-8.15 216.22-7.67 215.23-7.2 214.24-6.74 213.61-6.29 212.97-5.83 212.63-5.37L212.63-5.37ZM203.55-17.8L203.55-18.73 209.31-18.73Q209.31-22.27 211.37-23.95 213.44-25.63 217.78-25.63L217.78-25.63Q219.08-25.63 220.16-25.45 221.25-25.27 222.04-24.96 222.84-24.66 223.28-24.26 223.72-23.85 223.72-23.44L223.72-23.44Q223.54-23.63 223.13-23.86 222.71-24.1 221.99-24.28 221.27-24.46 220.25-24.58 219.22-24.71 217.83-24.71L217.83-24.71Q215.95-24.71 214.55-24.39 213.14-24.07 212.19-23.35 211.24-22.63 210.76-21.45 210.29-20.26 210.29-18.53L210.29-18.53 210.29-17.8 203.55-17.8ZM203.55 1.71L234.68 1.71 234.68-6.45 235.65-6.45 235.65 2.64 203.55 2.64 203.55 1.71ZM240.71-14.67L240.71-14.67Q240.71-18.02 241.75-21.03 242.8-24.05 244.94-26.32 247.08-28.59 250.29-29.92 253.5-31.25 257.82-31.25L257.82-31.25Q262.34-31.25 265.51-30.04 268.68-28.83 270.67-26.68 272.66-24.54 273.58-21.61 274.49-18.68 274.49-15.23L274.49-15.23Q274.49-11.89 273.47-8.98 272.44-6.08 270.36-3.92 268.27-1.76 265.13-0.51 261.99 0.73 257.77 0.73L257.77 0.73Q254.13 0.73 251.02-0.24 247.91-1.22 245.61-3.16 243.32-5.1 242.01-7.98 240.71-10.86 240.71-14.67ZM245.86-0.93L245.86-0.93Q248.05 0.61 251.04 1.53 254.04 2.44 257.77 2.44L257.77 2.44Q261.95 2.44 265.35 1.21 268.76-0.02 271.19-2.33 273.62-4.64 274.93-7.9 276.25-11.16 276.25-15.23L276.25-15.23Q276.25-17.46 275.87-19.52 275.5-21.58 274.67-23.44 273.84-25.29 272.49-26.92 271.15-28.54 269.22-29.88L269.22-29.88Q273.35-28 275.29-24.3 277.23-20.61 277.23-15.23L277.23-15.23Q277.23-11.01 275.91-7.57 274.59-4.13 272.09-1.7 269.59 0.73 265.97 2.05 262.36 3.37 257.77 3.37L257.77 3.37Q253.72 3.37 250.61 2.26 247.49 1.15 245.86-0.93ZM246.56-14.87L246.56-14.87Q246.56-12.08 247.28-9.91 248-7.74 249.41-6.24 250.81-4.74 252.86-3.96 254.91-3.17 257.55-3.17L257.55-3.17Q260.6-3.17 262.71-4.16 264.83-5.15 266.14-6.81 267.46-8.47 268.05-10.66 268.63-12.84 268.63-15.23L268.63-15.23Q268.63-17.99 268-20.24 267.37-22.49 266.02-24.06 264.68-25.63 262.63-26.49 260.58-27.34 257.72-27.34L257.72-27.34Q254.96-27.34 252.88-26.45 250.79-25.56 249.38-23.93 247.98-22.29 247.27-19.98 246.56-17.68 246.56-14.87ZM255.09-5.22L255.09-5.22Q253.79-5.42 252.58-6.08 251.37-6.74 250.42-7.93 249.47-9.13 248.9-10.86 248.32-12.6 248.32-14.94L248.32-14.94Q248.32-17.63 248.99-19.63 249.67-21.63 250.89-22.97 252.11-24.32 253.85-24.98 255.6-25.63 257.72-25.63L257.72-25.63Q260.68-25.63 262.54-24.66 264.41-23.68 265.12-21.92L265.12-21.92Q264.41-22.66 263.65-23.18 262.9-23.71 262.01-24.05 261.12-24.39 260.07-24.55 259.02-24.71 257.72-24.71L257.72-24.71Q255.55-24.71 253.97-24.02 252.4-23.34 251.35-22.07 250.3-20.8 249.8-18.98 249.3-17.16 249.3-14.92L249.3-14.92Q249.3-13.21 249.7-11.69 250.1-10.18 250.85-8.92 251.59-7.67 252.67-6.73 253.74-5.79 255.09-5.22ZM282.11-14.67L282.11-14.67Q282.11-18.02 283.16-21.03 284.21-24.05 286.34-26.32 288.48-28.59 291.69-29.92 294.9-31.25 299.22-31.25L299.22-31.25Q303.74-31.25 306.91-30.04 310.09-28.83 312.08-26.68 314.07-24.54 314.98-21.61 315.9-18.68 315.9-15.23L315.9-15.23Q315.9-11.89 314.87-8.98 313.85-6.08 311.76-3.92 309.67-1.76 306.54-0.51 303.4 0.73 299.17 0.73L299.17 0.73Q295.54 0.73 292.42-0.24 289.31-1.22 287.02-3.16 284.72-5.1 283.42-7.98 282.11-10.86 282.11-14.67ZM287.26-0.93L287.26-0.93Q289.46 0.61 292.45 1.53 295.44 2.44 299.17 2.44L299.17 2.44Q303.35 2.44 306.75 1.21 310.16-0.02 312.59-2.33 315.02-4.64 316.34-7.9 317.66-11.16 317.66-15.23L317.66-15.23Q317.66-17.46 317.28-19.52 316.9-21.58 316.07-23.44 315.24-25.29 313.9-26.92 312.55-28.54 310.62-29.88L310.62-29.88Q314.75-28 316.69-24.3 318.63-20.61 318.63-15.23L318.63-15.23Q318.63-11.01 317.31-7.57 316-4.13 313.49-1.7 310.99 0.73 307.38 2.05 303.76 3.37 299.17 3.37L299.17 3.37Q295.12 3.37 292.01 2.26 288.9 1.15 287.26-0.93ZM287.97-14.87L287.97-14.87Q287.97-12.08 288.69-9.91 289.41-7.74 290.81-6.24 292.22-4.74 294.27-3.96 296.32-3.17 298.95-3.17L298.95-3.17Q302.01-3.17 304.12-4.16 306.23-5.15 307.55-6.81 308.87-8.47 309.45-10.66 310.04-12.84 310.04-15.23L310.04-15.23Q310.04-17.99 309.4-20.24 308.77-22.49 307.43-24.06 306.08-25.63 304.03-26.49 301.98-27.34 299.13-27.34L299.13-27.34Q296.37-27.34 294.28-26.45 292.19-25.56 290.79-23.93 289.38-22.29 288.68-19.98 287.97-17.68 287.97-14.87ZM296.49-5.22L296.49-5.22Q295.19-5.42 293.99-6.08 292.78-6.74 291.83-7.93 290.87-9.13 290.3-10.86 289.73-12.6 289.73-14.94L289.73-14.94Q289.73-17.63 290.4-19.63 291.07-21.63 292.29-22.97 293.51-24.32 295.26-24.98 297-25.63 299.13-25.63L299.13-25.63Q302.08-25.63 303.95-24.66 305.81-23.68 306.52-21.92L306.52-21.92Q305.81-22.66 305.06-23.18 304.3-23.71 303.41-24.05 302.52-24.39 301.47-24.55 300.42-24.71 299.13-24.71L299.13-24.71Q296.95-24.71 295.38-24.02 293.8-23.34 292.75-22.07 291.7-20.8 291.2-18.98 290.7-17.16 290.7-14.92L290.7-14.92Q290.7-13.21 291.11-11.69 291.51-10.18 292.25-8.92 293-7.67 294.07-6.73 295.15-5.79 296.49-5.22ZM323.51-14.67L323.51-14.67Q323.51-18.02 324.56-21.03 325.61-24.05 327.75-26.32 329.88-28.59 333.1-29.92 336.31-31.25 340.63-31.25L340.63-31.25Q345.14-31.25 348.32-30.04 351.49-28.83 353.48-26.68 355.47-24.54 356.39-21.61 357.3-18.68 357.3-15.23L357.3-15.23Q357.3-11.89 356.28-8.98 355.25-6.08 353.16-3.92 351.08-1.76 347.94-0.51 344.8 0.73 340.58 0.73L340.58 0.73Q336.94 0.73 333.83-0.24 330.71-1.22 328.42-3.16 326.12-5.1 324.82-7.98 323.51-10.86 323.51-14.67ZM328.66-0.93L328.66-0.93Q330.86 0.61 333.85 1.53 336.84 2.44 340.58 2.44L340.58 2.44Q344.75 2.44 348.16 1.21 351.56-0.02 353.99-2.33 356.42-4.64 357.74-7.9 359.06-11.16 359.06-15.23L359.06-15.23Q359.06-17.46 358.68-19.52 358.3-21.58 357.47-23.44 356.64-25.29 355.3-26.92 353.96-28.54 352.03-29.88L352.03-29.88Q356.15-28 358.1-24.3 360.04-20.61 360.04-15.23L360.04-15.23Q360.04-11.01 358.72-7.57 357.4-4.13 354.9-1.7 352.39 0.73 348.78 2.05 345.17 3.37 340.58 3.37L340.58 3.37Q336.53 3.37 333.41 2.26 330.3 1.15 328.66-0.93ZM329.37-14.87L329.37-14.87Q329.37-12.08 330.09-9.91 330.81-7.74 332.22-6.24 333.62-4.74 335.67-3.96 337.72-3.17 340.36-3.17L340.36-3.17Q343.41-3.17 345.52-4.16 347.63-5.15 348.95-6.81 350.27-8.47 350.86-10.66 351.44-12.84 351.44-15.23L351.44-15.23Q351.44-17.99 350.81-20.24 350.17-22.49 348.83-24.06 347.49-25.63 345.44-26.49 343.39-27.34 340.53-27.34L340.53-27.34Q337.77-27.34 335.68-26.45 333.6-25.56 332.19-23.93 330.79-22.29 330.08-19.98 329.37-17.68 329.37-14.87ZM337.89-5.22L337.89-5.22Q336.6-5.42 335.39-6.08 334.18-6.74 333.23-7.93 332.28-9.13 331.7-10.86 331.13-12.6 331.13-14.94L331.13-14.94Q331.13-17.63 331.8-19.63 332.47-21.63 333.69-22.97 334.91-24.32 336.66-24.98 338.41-25.63 340.53-25.63L340.53-25.63Q343.48-25.63 345.35-24.66 347.22-23.68 347.93-21.92L347.93-21.92Q347.22-22.66 346.46-23.18 345.71-23.71 344.81-24.05 343.92-24.39 342.87-24.55 341.82-24.71 340.53-24.71L340.53-24.71Q338.36-24.71 336.78-24.02 335.21-23.34 334.16-22.07 333.11-20.8 332.61-18.98 332.11-17.16 332.11-14.92L332.11-14.92Q332.11-13.21 332.51-11.69 332.91-10.18 333.66-8.92 334.4-7.67 335.48-6.73 336.55-5.79 337.89-5.22Z" opacity="1" transform="matrix(1,0,0,1,0,0)" fill="#000000" class="slogan-text-1" data-fill-palette-color="secondary" id="text-1"></path></svg></g></svg></g></svg></g></svg></g><g><svg viewBox="0 0 74.14421337375249 153.02961360878584" height="153.02961360878584" width="74.14421337375249"><g><svg xmlns="http://www.w3.org/2000/svg" viewBox="27.195152282714844 13.602343559265137 25.61969757080078 52.87765884399414" x="0" y="0" height="153.02961360878584" width="74.14421337375249" class="icon-icon-0" data-fill-palette-color="accent" id="icon-0"><g fill="#8bd8bc" data-fill-palette-color="accent"><path d="M48.54 49.6a4.27 4.27 0 0 0 4.25-4.73 32.49 32.49 0 0 0-4.89-14l1.65-6.55a4.8 4.8 0 0 0-4.65-6H42.4V16a2.4 2.4 0 0 0-4.8 0v2.4H35.11a4.8 4.8 0 0 0-4.65 6l1.65 6.55a32.43 32.43 0 0 0-4.89 14 4.27 4.27 0 0 0 4.25 4.73H37.6v12H32.8a2.4 2.4 0 0 0 0 4.8H47.2a2.4 2.4 0 0 0 0-4.8H42.4v-12ZM36.66 32.72A2.39 2.39 0 0 0 37 30.77L35.11 23.2h9.79L43 30.77a2.39 2.39 0 0 0 0.35 1.94A27.66 27.66 0 0 1 47.95 44.8H32A27.68 27.68 0 0 1 36.66 32.72Z" fill="#000000" data-fill-palette-color="accent"></path></g></svg></g></svg></g></svg></g><defs></defs></svg><rect width="395.52" height="118.96011383718319" fill="none" stroke="none" visibility="hidden"></rect></g></svg></g></svg>