<svg width="560" height="560" viewBox="0 0 560 560" fill="none" xmlns="http://www.w3.org/2000/svg">
<g clip-path="url(#clip0_401_2)">
<path d="M280 560C434.64 560 560 434.64 560 280C560 125.36 434.64 0 280 0C125.36 0 0 125.36 0 280C0 434.64 125.36 560 280 560Z" fill="#2196F3"/>
<path d="M90.2125 158.13C108.955 158.13 128.327 156.87 147.087 158.55C155.417 167.912 157.29 181.037 163.747 191.87C247.922 192.29 332.5 191.87 416.675 191.87C422.922 192.29 430.622 192.5 433.755 198.747C437.5 205.625 434.805 213.745 431.252 219.992C414.172 248.955 397.915 278.337 381.255 307.492C375.007 317.922 370.825 329.577 361.462 337.715C353.762 344.172 343.122 344.575 333.34 344.575H216.65C210.402 344.575 203.735 343.962 199.99 338.957C187.915 325.412 181.44 308.122 173.53 292.285C159.832 264.86 146.426 237.29 133.315 209.58C130.602 203.332 127.277 197.715 124.145 191.87C113.12 191.87 102.06 191.87 91.245 191.45C89.145 180.425 89.1449 169.172 90.1949 158.13H90.2125ZM221.672 367.08C230.15 365.066 238.964 364.922 247.502 366.66C257.075 368.76 265.422 376.04 267.715 385.63C270.2 396.655 270.2 408.555 265.825 419.16C261.66 428.75 251.247 433.335 241.465 434.175C230.212 434.997 217.297 434.175 208.95 425.827C200.007 415.835 200.007 401.257 201.88 388.745C203.122 378.333 211.452 369.372 221.655 367.08H221.672ZM325.832 367.08C336.245 364.805 347.497 364.997 357.507 368.742C367.08 372.715 372.085 383.127 372.907 392.91C374.167 404.372 372.907 417.497 364.577 426.247C356.877 433.545 345.625 434.577 335.422 434.367C325.412 433.965 314.597 430.202 309.382 420.84C304.413 410.686 303.085 399.132 305.62 388.115C307.72 377.912 315.63 369.39 325.832 367.08Z" fill="white"/>
</g>
<defs>
<clipPath id="clip0_401_2">
<rect width="560" height="560" fill="white"/>
</clipPath>
</defs>
</svg>
